<svg xmlns="http://www.w3.org/2000/svg" viewBox="0 0 512 512">
  <defs>
    <radialGradient id="g" cx="36%" cy="28%" r="95%">
      <stop offset="0" stop-color="#183464"/><stop offset="1" stop-color="#080E1C"/>
    </radialGradient>
    <linearGradient id="b" x1="0" y1="0" x2="0" y2="1">
      <stop offset="0" stop-color="#FFD65C"/><stop offset="1" stop-color="#F07A18"/>
    </linearGradient>
    <linearGradient id="w" x1="0" y1="1" x2="1" y2="0">
      <stop offset="0" stop-color="#63D8FF" stop-opacity="0"/>
      <stop offset="1" stop-color="#63D8FF" stop-opacity=".42"/>
    </linearGradient>
    <filter id="soft" x="-60%" y="-60%" width="220%" height="220%">
      <feGaussianBlur stdDeviation="11"/>
    </filter>
    <filter id="drop" x="-40%" y="-40%" width="180%" height="180%">
      <feDropShadow dx="6" dy="10" stdDeviation="10" flood-color="#04080F" flood-opacity=".55"/>
    </filter>
  </defs>
  <rect width="512" height="512" rx="115" fill="url(#g)"/>
  <g fill="none" stroke="#56AADC" stroke-width="4">
    <circle cx="256" cy="256" r="123" opacity=".18"/>
    <circle cx="256" cy="256" r="171" opacity=".16"/>
    <circle cx="256" cy="256" r="220" opacity=".13"/>
  </g>
  <path d="M256 256 L129.8 75.8 A220 220 0 0 1 436.2 129.8 Z" fill="url(#w)"/>
  <line x1="256" y1="256" x2="436.2" y2="129.8" stroke="#78E1FF" stroke-width="7" stroke-linecap="round" opacity=".85"/>
  <g filter="url(#soft)">
    <circle cx="136" cy="205" r="54" fill="#3ED598" opacity=".72"/>
    <circle cx="136" cy="205" r="34" fill="#EED646" opacity=".85"/>
    <circle cx="136" cy="205" r="17" fill="#EB6E28"/>
  </g>
  <path d="M294.4 79.4 L166.4 279 H236.5 L200.7 432.6 345.6 217.6 H267.8 Z" fill="url(#b)" filter="url(#drop)"/>
</svg>
